<svg xmlns="http://www.w3.org/2000/svg" role="icon" style="display: none;"><symbol viewBox="0 0 21 21" id="blogs-business"><title>business</title> <rect x="4" y="10" stroke-miterlimit="10" width="2" height="7"/> <rect x="13" y="8" stroke-miterlimit="10" width="2" height="9"/> <rect x="18" y="6" stroke-miterlimit="10" width="2" height="11"/> <rect x="9" y="12" stroke-miterlimit="10" width="2" height="5"/> <path stroke-miterlimit="10" d="M3.833,6.558l4.672,2.342l4.671-4.684l6.998-2.508"/> <polyline stroke-miterlimit="10" points="20.5,20 1,20 1,0.5 	"/> </symbol><symbol viewBox="0 0 20 20" id="blogs-email"><title>email</title> <rect x="0.5" y="3.5" stroke-miterlimit="10" width="19" height="14"/> <polygon stroke-miterlimit="10" points="10,13.436 0.5,6.214 0.5,3.5 10.138,3.5 19.5,3.5	19.5,6.214 		"/> <line stroke-miterlimit="10" x1="14.54" y1="13.857" x2="19.5" y2="17.5"/> <line stroke-miterlimit="10" x1="0.572" y1="17.5" x2="5.53" y2="13.86"/> </symbol><symbol viewBox="0 0 20 20" id="blogs-fb"><title>fb</title> <path d="M12.094,20v-8.631h3.289l0.51-3.75h-3.799l-0.125-2.258c0-1.092,0.195-1.837,1.839-1.837l2.098,0V0.149
C15.543,0.103,14.298,0,12.849,0C9.824,0,8.031,1.758,8.031,4.988l0.125,2.631l-4.063,0.06v3.75l4.063-0.06V20H12.094z"/> </symbol><symbol viewBox="0 0 20 20" id="blogs-google+"><title>google+</title> <path fill-rule="evenodd" clip-rule="evenodd" d="M10.565,11.363l-0.851-0.729
c-0.123-0.129-0.249-0.277-0.379-0.449c-0.153-0.179-0.23-0.405-0.23-0.678c0-0.283,0.075-0.53,0.225-0.744
c0.127-0.205,0.265-0.388,0.414-0.55c0.262-0.239,0.508-0.474,0.739-0.705c0.209-0.231,0.407-0.482,0.594-0.756
c0.381-0.563,0.58-1.315,0.594-2.255c0-0.513-0.055-0.961-0.166-1.346c-0.133-0.384-0.286-0.717-0.46-0.999
c-0.181-0.299-0.366-0.551-0.554-0.756c-0.197-0.196-0.375-0.346-0.531-0.448h1.545L13.053,0H8.04
C7.375,0,6.662,0.081,5.902,0.243c-0.768,0.188-1.509,0.59-2.221,1.205c-1.038,1.05-1.557,2.22-1.557,3.51
c0,1.068,0.367,2.003,1.098,2.806c0.7,0.863,1.717,1.303,3.051,1.32c0.252,0,0.521-0.017,0.806-0.051
c-0.048,0.137-0.1,0.288-0.153,0.451c-0.063,0.154-0.094,0.348-0.094,0.58c0,0.387,0.083,0.717,0.248,0.992
c0.141,0.284,0.302,0.55,0.482,0.798c-0.585,0.018-1.32,0.094-2.205,0.231c-0.894,0.162-1.746,0.485-2.558,0.972
c-0.723,0.452-1.222,0.976-1.498,1.573c-0.285,0.597-0.426,1.139-0.426,1.625c0,0.997,0.438,1.854,1.311,2.57
C3.052,19.59,4.363,19.983,6.118,20c2.097-0.034,3.702-0.56,4.814-1.576c1.073-0.982,1.61-2.11,1.61-3.382
c-0.016-0.897-0.211-1.624-0.587-2.179C11.557,12.316,11.093,11.817,10.565,11.363z M7.432,8.368
c-0.522,0-0.986-0.167-1.392-0.501c-0.406-0.333-0.738-0.74-0.995-1.22C4.514,5.621,4.25,4.632,4.25,3.682
C4.233,2.963,4.415,2.313,4.794,1.73C5.245,1.174,5.81,0.887,6.489,0.87c0.514,0.018,0.968,0.176,1.363,0.475
c0.387,0.317,0.699,0.728,0.936,1.232C9.292,3.63,9.546,4.675,9.546,5.71c0,0.24-0.019,0.535-0.054,0.887
C9.431,6.947,9.295,7.29,9.082,7.623C8.642,8.094,8.093,8.343,7.432,8.368z M10.018,18.081c-0.623,0.529-1.524,0.802-2.706,0.82
c-1.316-0.018-2.354-0.325-3.112-0.923c-0.798-0.599-1.197-1.359-1.197-2.281c0-0.47,0.091-0.872,0.275-1.205
c0.16-0.316,0.355-0.581,0.587-0.794c0.239-0.205,0.475-0.362,0.706-0.474c0.231-0.103,0.411-0.18,0.539-0.231
c0.542-0.171,1.074-0.294,1.593-0.372c0.526-0.051,0.854-0.068,0.981-0.051c0.216,0,0.403,0.008,0.563,0.025
c0.934,0.684,1.62,1.261,2.059,1.73c0.416,0.496,0.623,1.077,0.623,1.743C10.927,16.888,10.624,17.559,10.018,18.081z"/> <polygon fill-rule="evenodd" clip-rule="evenodd" points="19.125,8.571 17.3,8.571 17.3,6.667 15.475,6.667
15.475,8.571 13.65,8.571 13.65,10.476 15.475,10.476 15.475,12.277 17.3,12.277 17.3,10.476 19.125,10.476 "/> </symbol><symbol viewBox="-13.5 107 25 21" id="blogs-hamburger"><title>hamburger</title> <line stroke-miterlimit="10" x1="-13" y1="110" x2="11" y2="110"/> <line stroke-miterlimit="10" x1="-13" y1="118" x2="11" y2="118"/> <line stroke-miterlimit="10" x1="-13" y1="126" x2="11" y2="126"/> </symbol><symbol viewBox="0 0 21 21" id="blogs-latest"><title>latest</title> <path d="M10.5,1c5.238,0,9.5,4.262,9.5,9.5S15.738,20,10.5,20S1,15.738,1,10.5S5.262,1,10.5,1 M10.5,0
C4.701,0,0,4.701,0,10.5S4.701,21,10.5,21S21,16.299,21,10.5S16.299,0,10.5,0L10.5,0z"/> <path d="M10.5,10.501c-0.552,0-1,0.447-1,0.999s0.448,0.999,1,0.999s1-0.447,1-0.999S11.052,10.501,10.5,10.501
L10.5,10.501z"/> <line stroke-miterlimit="10" x1="16.156" y1="5.844" x2="10.5" y2="11.5"/> <line stroke-miterlimit="10" x1="10.5" y1="11.5" x2="7.036" y2="7.661"/> </symbol><symbol viewBox="0 0 20 20" id="blogs-linkedin"><title>linkedin</title> <path fill-rule="evenodd" clip-rule="evenodd" d="M4.727,19.65v-12h-4v12H4.727L4.727,19.65z M5.132,2.779 c0-1.342-1.087-2.429-2.43-2.429c-1.342,0-2.429,1.087-2.429,2.429S1.36,5.208,2.702,5.208C4.045,5.208,5.132,4.122,5.132,2.779z"/> <path fill-rule="evenodd" clip-rule="evenodd" d="M7.727,19.65h3.93v-7.033c0-0.365,0.026-0.729,0.134-0.989
c0.292-0.728,0.714-1.481,1.833-1.481c1.464,0,2.104,1.117,2.104,2.755v6.748h4v-7.215c0-3.744-1.999-5.487-4.664-5.487
c-2.187,0-2.901,1.223-3.434,2.055h0.027l0.07-1.353h-3.93C7.85,8.793,7.727,19.65,7.727,19.65L7.727,19.65z"/> </symbol><symbol viewBox="0 0 21 21" id="blogs-lrlogo"><title>lrlogo</title> <path d="M18,1c1.103,0,2,0.897,2,2v15c0,1.103-0.897,2-2,2H3c-1.103,0-2-0.897-2-2V3c0-1.103,0.897-2,2-2H18 M18,0
H3C1.343,0,0,1.343,0,3v15c0,1.656,1.343,3,3,3h15c1.656,0,3-1.344,3-3V3C21,1.343,19.656,0,18,0L18,0z"/> <rect x="3" y="3" width="3" height="3"/> <rect x="7" y="3" width="3" height="3"/> <rect x="11" y="3" width="3" height="3"/> <rect x="3" y="7" width="3" height="3"/> <rect x="7" y="7" width="3" height="3"/> <rect x="15" y="7" width="3" height="3"/> <rect x="3" y="11" width="3" height="3"/> <rect x="11" y="11" width="3" height="3"/> <rect x="15" y="11" width="3" height="3"/> <rect x="7" y="15" width="3" height="3"/> <rect x="11" y="15" width="3" height="3"/> <rect x="15" y="15" width="3" height="3"/> </symbol><symbol viewBox="0 0 20 20" id="blogs-next"><title>next</title><path stroke-width="1.5" stroke-linecap="round" stroke-miterlimit="10" d="M2,1l16,9L2,19"/> </symbol><symbol viewBox="0 0 20 20" id="blogs-previous"><title>previous</title><path stroke-width="1.5" stroke-linecap="round" stroke-miterlimit="10" d="M18.001,18.999L2,10.001 l15.999-9.002"/></symbol><symbol viewBox="0 0 20 20" id="blogs-rss"><title>rss</title> <path d="M13.117,19.5H9.306c0.007-0.139,0.021-0.271,0.021-0.407c0-4.615-3.739-8.354-8.354-8.354
c-0.151,0-0.301,0.012-0.451,0.021v-3.81c0.075-0.003,0.15-0.005,0.224-0.005c6.836,0,12.377,5.537,12.377,12.371
C13.123,19.379,13.121,19.438,13.117,19.5z"/> <path d="M19.476,19.5h-3.904c0.007-0.189,0.014-0.382,0.014-0.576c0-8.028-6.51-14.535-14.534-14.535
c-0.178,0-0.354,0.006-0.53,0.014V0.502c0.044,0,0.09-0.002,0.138-0.002c10.394,0,18.818,8.426,18.818,18.817
C19.478,19.379,19.476,19.438,19.476,19.5z"/> <circle cx="3.274" cy="16.748" r="2.752"/> </symbol><symbol viewBox="-10.5 107 21 21" id="blogs-search"><title>search</title> <path d="M-1.774,108.676c3.916,0,7.102,3.186,7.102,7.102s-3.186,7.102-7.102,7.102
c-3.916,0-7.101-3.186-7.101-7.102S-5.689,108.676-1.774,108.676 M-1.774,107.676c-4.474,0-8.101,3.627-8.101,8.102
s3.627,8.102,8.101,8.102c4.474,0,8.102-3.627,8.102-8.102S2.7,107.676-1.774,107.676L-1.774,107.676z"/> <line stroke-miterlimit="10" x1="3.492" y1="120.951" x2="10.142" y2="127.601"/> </symbol><symbol viewBox="0 0 21 21" id="blogs-tech"><title>tech</title> <circle stroke-miterlimit="10" cx="17.5" cy="17.5" r="2.5"/> <circle stroke-miterlimit="10" cx="3.5" cy="10.5" r="2.5"/> <circle stroke-miterlimit="10" cx="17.5" cy="3.5" r="2.5"/> <path stroke-miterlimit="10" d="M5,9l10-4L5,9z"/> <path stroke-miterlimit="10" d="M4.89,12.556l10,4L4.89,12.556z"/> </symbol><symbol viewBox="0 0 22 22" id="blogs-trending"><title>trending</title> <line stroke-miterlimit="10" x1="10.578" y1="0.318" x2="4.578" y2="19.318"/> <line stroke-miterlimit="10" x1="16.578" y1="2.318" x2="10.578" y2="21.318"/> <line stroke-miterlimit="10" x1="1.078" y1="13.818" x2="20.078" y2="14.818"/> <line stroke-miterlimit="10" x1="2.078" y1="6.818" x2="21.078" y2="7.818"/> </symbol><symbol viewBox="0 0 20 20" id="blogs-twitter"><title>twitter</title> <path d="M19.938,3.836c-0.731,0.324-1.518,0.543-2.342,0.643c0.842-0.505,1.488-1.304,1.793-2.257
c-0.787,0.468-1.661,0.807-2.59,0.99c-0.743-0.792-1.803-1.288-2.976-1.288c-2.252,0-4.078,1.825-4.078,4.078
c0,0.319,0.036,0.631,0.105,0.93C6.462,6.761,3.457,5.137,1.446,2.67C1.096,3.272,0.895,3.974,0.895,4.721
c0,1.415,0.72,2.663,1.813,3.394C2.039,8.093,1.41,7.909,0.86,7.604c0,0.017,0,0.034,0,0.051c0,1.976,1.406,3.624,3.271,3.998
c-0.342,0.094-0.703,0.144-1.074,0.144c-0.263,0-0.519-0.025-0.767-0.073c0.519,1.62,2.024,2.799,3.809,2.832
c-1.396,1.094-3.154,1.746-5.064,1.746c-0.329,0-0.653-0.02-0.973-0.057c1.805,1.156,3.948,1.832,6.251,1.832
c7.5,0,11.602-6.213,11.602-11.602c0-0.177-0.004-0.353-0.012-0.528C18.699,5.372,19.391,4.654,19.938,3.836z"/> </symbol><symbol viewBox="0 0 20 20" id="blogs-youtube"><title>youtube</title> <path d="M18.448,3.159c-0.573-0.607-1.364-0.983-2.239-0.983L10,1.917L3.791,2.175c-0.875,0-1.666,0.376-2.239,0.983
C0.98,3.767,0.625,4.606,0.625,5.535v3.504v5.426c0,0.927,0.355,1.768,0.927,2.375c0.573,0.608,1.364,0.984,2.239,0.984L10,18.083
l6.209-0.259c0.875,0,1.666-0.376,2.239-0.984c0.572-0.608,0.927-1.448,0.927-2.375V9.039V5.535
C19.375,4.606,19.02,3.767,18.448,3.159z M7.444,13.562V6.326l6.817,3.618L7.444,13.562z"/> </symbol></svg>