<svg xmlns="http://www.w3.org/2000/svg" style="display: none;">
	<defs> <rect id="logo_Connected_Services-SVGID_3_" x="5" y="1.397" width="71.072" height="78.603"/> </defs><symbol viewBox="0 0 80 80" id="blogs-logo_Connected_Services"><title>logo_Connected_Services</title> <polygon fill="#009DB7" points="24.486,32.47 25.332,32.899 41.496,2.932 40.65,2.501 "/> <polygon fill="#005B96" points="41.036,58.464 40.56,57.698 55.436,48.907 55.912,49.671 "/> <polygon fill="#1A75B8" points="28.379,71.276 27.692,70.66 40.353,57.3 41.04,57.916 "/> <polygon fill="#1A75B8" points="40.694,78.627 6.988,59.69 7.447,58.915 40.694,77.597 56.191,68.888 56.65,69.663 "/> <polygon fill="#1A75B8" points="40.397,58.468 24.916,49.676 25.379,48.904 40.861,57.695 "/> <rect x="24.688" y="31.753" fill="#038AB5" width="0.917" height="17.537"/> <rect x="6.758" y="21.691" fill="#038AB5" width="0.919" height="37.001"/> <polygon fill="#009DB7" points="25.354,32.141 24.895,31.365 40.568,22.531 41.026,23.304 "/> <polygon fill="#009DB7" points="74.079,22.13 25.029,12.072 25.22,11.197 74.271,21.255 "/> <polygon fill="#00B6B7" points="41.115,23.237 40.479,22.594 53.825,10.119 54.46,10.764 "/> <polygon fill="#038AB5" points="19.315,28.399 18.453,28.095 24.694,11.48 25.557,11.787 "/> <polygon fill="#038AB5" points="7.649,59.456 6.785,59.148 18.452,28.094 19.315,28.399 "/> <polygon fill="#1A75B8" points="27.483,51.134 7.009,40.898 7.427,40.102 27.904,50.337 "/> <polygon fill="#1A75B8" points="56.327,69.713 40.603,66.524 40.787,65.65 56.513,68.84 "/> <polygon fill="#1A75B8" points="40.602,66.526 7.124,59.741 7.311,58.865 40.787,65.65 "/> <polygon fill="#005B96" points="41.101,78.32 40.289,77.903 55.875,49.082 56.688,49.498 "/> <polygon fill="#00B6B7" points="56.652,32.14 56.189,31.366 73.943,21.307 74.406,22.077 "/> <polygon fill="#00B6B7" points="40.465,3.273 73.944,22.078 74.405,21.305 40.925,2.501 "/> <polygon fill="#00B6B7" points="56.192,32.053 40.568,23.304 41.025,22.529 56.65,31.277 "/> <polygon fill="#009DB7" points="24.895,11.248 25.355,12.021 40.925,3.274 40.465,2.501 "/> <polygon fill="#009DB7" points="7.447,22.08 6.987,21.307 24.895,11.248 25.354,12.021 "/> <g>  <clipPath id="logo_Connected_Services-SVGID_2_"> <use xlink:href="#logo_Connected_Services-SVGID_3_" overflow="visible"/> </clipPath> <path clip-path="url(#logo_Connected_Services-SVGID_2_)" fill="#00B6B7" d="M42.818,3.464c0,1.142-0.95,2.065-2.124,2.065S38.57,4.605,38.57,3.464
		c0-1.142,0.95-2.066,2.124-2.066S42.818,2.322,42.818,3.464"/> <path clip-path="url(#logo_Connected_Services-SVGID_2_)" fill="#009DB7" d="M27.478,12.021c0,1.143-0.95,2.066-2.123,2.066
		c-1.172,0-2.123-0.924-2.123-2.066c0-1.142,0.951-2.066,2.123-2.066C26.527,9.955,27.478,10.88,27.478,12.021"/> <path clip-path="url(#logo_Connected_Services-SVGID_2_)" fill="#038AB5" d="M9.342,21.692c0,1.142-0.951,2.066-2.124,2.066s-2.125-0.925-2.125-2.066
		c0-1.143,0.952-2.068,2.125-2.068S9.342,20.55,9.342,21.692"/> <path clip-path="url(#logo_Connected_Services-SVGID_2_)" fill="#038AB5" d="M9.342,40.521c0,1.142-0.951,2.065-2.124,2.065s-2.125-0.924-2.125-2.065
		c0-1.143,0.952-2.066,2.125-2.066S9.342,39.379,9.342,40.521"/> <path clip-path="url(#logo_Connected_Services-SVGID_2_)" fill="#1A75B8" d="M9.246,58.916c0,1.142-0.949,2.066-2.122,2.066S5,60.058,5,58.916
		s0.951-2.065,2.124-2.065S9.246,57.774,9.246,58.916"/> <path clip-path="url(#logo_Connected_Services-SVGID_2_)" fill="#1A75B8" d="M27.271,49.29c0,1.142-0.949,2.066-2.124,2.066s-2.124-0.925-2.124-2.066
		s0.949-2.065,2.124-2.065S27.271,48.148,27.271,49.29"/> <path clip-path="url(#logo_Connected_Services-SVGID_2_)" fill="#038AB5" d="M27.271,31.753c0,1.144-0.949,2.066-2.124,2.066s-2.124-0.923-2.124-2.066
		c0-1.143,0.949-2.066,2.124-2.066S27.271,30.61,27.271,31.753"/> <path clip-path="url(#logo_Connected_Services-SVGID_2_)" fill="#009DB7" d="M43.048,22.917c0,1.142-0.95,2.064-2.123,2.064
		c-1.175,0-2.125-0.923-2.125-2.064c0-1.144,0.95-2.067,2.125-2.067C42.098,20.85,43.048,21.773,43.048,22.917"/> <path clip-path="url(#logo_Connected_Services-SVGID_2_)" fill="#00B6B7" d="M56.189,10.764c0,1.144-0.949,2.067-2.123,2.067
		c-1.173,0-2.124-0.924-2.124-2.067c0-1.141,0.951-2.065,2.124-2.065C55.24,8.698,56.189,9.623,56.189,10.764"/> <path clip-path="url(#logo_Connected_Services-SVGID_2_)" fill="#00B6B7" d="M76.072,21.426c0,1.144-0.95,2.068-2.124,2.068
		c-1.172,0-2.122-0.925-2.122-2.068c0-1.141,0.95-2.063,2.122-2.063C75.122,19.362,76.072,20.285,76.072,21.426"/> <path clip-path="url(#logo_Connected_Services-SVGID_2_)" fill="#00B6B7" d="M58.706,31.753c0,1.143-0.948,2.066-2.122,2.066
		c-1.173,0-2.124-0.924-2.124-2.066c0-1.144,0.951-2.066,2.124-2.066C57.758,29.687,58.706,30.609,58.706,31.753"/> <path clip-path="url(#logo_Connected_Services-SVGID_2_)" fill="#006AA0" d="M42.683,58.082c0,1.141-0.95,2.064-2.123,2.064
		c-1.174,0-2.124-0.924-2.124-2.064c0-1.143,0.95-2.066,2.124-2.066C41.732,56.016,42.683,56.939,42.683,58.082"/> <path clip-path="url(#logo_Connected_Services-SVGID_2_)" fill="#005B96" d="M57.57,49.842c0,1.14-0.949,2.064-2.123,2.064
		c-1.172,0-2.123-0.925-2.123-2.064c0-1.144,0.951-2.067,2.123-2.067C56.621,47.774,57.57,48.698,57.57,49.842"/> <path clip-path="url(#logo_Connected_Services-SVGID_2_)" fill="#005B96" d="M75.781,59.365c0,1.143-0.949,2.067-2.123,2.067
		c-1.173,0-2.124-0.925-2.124-2.067c0-1.142,0.951-2.065,2.124-2.065C74.832,57.3,75.781,58.224,75.781,59.365"/> <path clip-path="url(#logo_Connected_Services-SVGID_2_)" fill="#005B96" d="M58.545,69.275c0,1.142-0.951,2.067-2.124,2.067s-2.124-0.926-2.124-2.067
		c0-1.141,0.951-2.065,2.124-2.065S58.545,68.135,58.545,69.275"/> <path clip-path="url(#logo_Connected_Services-SVGID_2_)" fill="#006AA0" d="M42.819,77.932c0,1.144-0.95,2.068-2.124,2.068
		c-1.173,0-2.124-0.925-2.124-2.068c0-1.14,0.951-2.064,2.124-2.064C41.869,75.867,42.819,76.792,42.819,77.932"/> <path clip-path="url(#logo_Connected_Services-SVGID_2_)" fill="#1A75B8" d="M30.026,70.764c0,1.144-0.95,2.067-2.122,2.067
		c-1.173,0-2.124-0.924-2.124-2.067c0-1.141,0.951-2.064,2.124-2.064C29.076,68.699,30.026,69.623,30.026,70.764"/> <polygon clip-path="url(#logo_Connected_Services-SVGID_2_)" fill="#005B96" points="73.948,59.843 55.447,49.678 55.898,48.901 74.4,59.065 	"/> <polygon clip-path="url(#logo_Connected_Services-SVGID_2_)" fill="#005B96" points="56.651,69.661 56.191,68.889 73.944,58.916 74.405,59.689 	"/> </g> </symbol><symbol viewBox="0 0 80 80" id="blogs-logo_Developer_Studio"><title>logo_Developer_Studio</title> <polygon fill="#405A8B" points="40.002,0.169 3.252,20.087 3.252,59.917 40.002,79.831 76.748,59.917 76.748,20.087 "/> <polygon fill="#FFFFFF" points="40,70.378 11.973,55.191 11.973,24.811 40,9.622 68.027,24.811 40,39.851 14.266,25.903 14.266,53.796 40,67.745 40,42.456 68.027,27.412 68.027,55.191 "/> </symbol><symbol viewBox="0 0 80 80" id="blogs-logo_Marketplace"><title>logo_Marketplace</title> <path fill="#1C75B9" d="M29.839,31.545h-7.425v-7.41h7.425V31.545z M29.839,22.238h-7.425V14.77h7.425
V22.238z M39.089,31.545H31.69v-7.41h7.398V31.545z M39.089,22.238H31.69V14.77h7.398V22.238z M48.338,22.238H40.94V14.77h7.397
V22.238z M63.137,33.004V11.02c0-0.701-1.115-1.855-1.809-1.855h-42.66c-0.691,0-1.777,1.154-1.777,1.855v21.957l5.523,2.443
v-1.947h7.423v5.236l10.161,4.084l4.438-1.877h-3.498v-7.443h7.399v5.793l1.852-0.783v-5.01h7.395v1.881L63.137,33.004z
M57.586,31.545h-7.396v-7.41h7.396V31.545z"/> <polygon fill="#1C75B9" points="39.089,70.836 39.089,47.563 30.56,56.119 11.326,47.449
11.326,59.611	"/> <polygon fill="#1C75B9" points="39.1,44.682 30.525,53.42 2.055,40.922 11.37,33.518 	"/> <polygon fill="#1C75B9" points="15.023,29.75 15.023,18.053 0.235,24.172 11.385,31.633	"/> <polygon fill="#1C75B9" points="15.021,31.557 12.82,32.613 15.052,33.479 	"/> <polygon fill="#1C75B9" points="40.911,70.836 40.911,47.563 49.44,56.119 68.674,47.449 68.674,59.611 "/> <polygon fill="#1C75B9" points="40.898,44.682 49.473,53.42 77.941,40.922 68.626,33.518	"/> <polygon fill="#1C75B9" points="64.977,29.75 64.977,18.053 79.765,24.172 68.613,31.633 	"/> <polygon fill="#1C75B9" points="64.979,31.557 67.406,32.518 64.979,33.479 	"/> </symbol><symbol viewBox="0 0 80 80" id="blogs-logo_Mobile_SDK"><title>logo_Mobile_SDK</title> <polygon fill="#208DBF" points="40.186,1.5 6.379,21.126 6.379,60.375 40.186,80 73.986,60.375 73.986,21.126 "/> <polygon fill="#53BFE5" points="13.492,25.254 40.184,9.76 66.873,25.254 66.873,56.246 40.184,71.74 13.492,56.246 "/> <path fill="#FFFFFF" d="M50.129,57.034c0,1.146-0.933,2.086-2.072,2.086H32.311c-1.139,0-2.072-0.939-2.072-2.086V24.466
	c0-1.146,0.934-2.086,2.072-2.086h15.746c1.14,0,2.072,0.939,2.072,2.086V57.034z"/> <rect x="31.894" y="27.813" fill="#208DBF" width="16.575" height="26.853"/> <rect x="37.593" y="24.669" fill="#208DBF" width="5.183" height="1.119"/> <path fill="#FFFFFF" d="M62.283,32.542c0-1.516-0.936-2.815-2.258-3.348v4.12l-1.328,0.771l-1.328-0.771v-4.12
	c-1.32,0.53-2.255,1.832-2.255,3.348c0,1.497,0.905,2.782,2.198,3.328c0,0,0.741,0.243,1.385,0.246c0.646,0,1.333-0.227,1.333-0.227
	C61.35,35.359,62.283,34.061,62.283,32.542"/> <rect x="57.175" y="35.319" fill="#FFFFFF" width="3.047" height="16.986"/> <polygon fill="#FFFFFF" points="22.337,27.974 21.527,27.974 20.723,27.974 20.213,31.1 20.985,31.867 21.527,31.867 22.072,31.867
	22.844,31.1 "/> <rect x="20.842" y="31.271" fill="#FFFFFF" width="1.378" height="11.733"/> <rect x="19.643" y="41.271" fill="#FFFFFF" width="3.772" height="12.254"/> <path fill="#FFFFFF" d="M55.761,50.727c0-1.632,1.316-2.954,2.938-2.954c1.62,0,2.938,1.322,2.938,2.954
	c0,1.633-1.318,2.956-2.938,2.956C57.077,53.683,55.761,52.359,55.761,50.727"/> <path fill="#53BFE5" d="M57.278,50.727c0-0.788,0.637-1.428,1.421-1.428c0.785,0,1.42,0.64,1.42,1.428
	c0,0.789-0.635,1.428-1.42,1.428C57.915,52.154,57.278,51.516,57.278,50.727"/> </symbol><symbol viewBox="0 0 80 80" id="blogs-logo_Push"><title>logo_Push</title> <polygon fill="#3AC3E3" points="4.449,20.328 40,0.652 75.551,20.326 75.551,59.673 40,79.348 4.449,59.673 "/> <polygon fill="#97D8E6" points="11.93,24.463 39.998,8.932 68.068,24.463 68.07,55.535 40,71.068 11.93,55.535 "/> <path fill="#FFFFFF" d="M40,61.361c-12.309,0-22.285-9.563-22.285-21.359c0-11.801,9.977-21.363,22.285-21.363
	c12.307,0,22.283,9.563,22.285,21.363C62.285,51.795,52.307,61.361,40,61.361"/> <path fill="#E31E26" d="M39.998,59.672c-11.338,0-20.525-8.809-20.525-19.67c0-10.867,9.188-19.674,20.525-19.674
	s20.527,8.807,20.529,19.674C60.527,50.863,51.336,59.672,39.998,59.672"/> <path fill="#FFFFFF" d="M42.934,54.102h-5.867v-5.088h5.867V54.102z M42.934,46.248h-5.867v-20.35h5.867V46.248z"/> </symbol><symbol viewBox="0 0 80 80" id="blogs-logo_Screens"><title>logo_Screens</title> <polygon fill="#D9EDEF" points="39.601,1.248 4.196,20.936 4.196,60.313 39.601,80 75,60.313 75,20.936 "/> <polygon fill="#066666" points="4.196,60.313 4.196,60.313 39.599,80 63.161,66.896 27.762,47.208 "/> <polygon fill="#0DA0AD" points="10.114,37.333 45.516,57.021 69.081,43.916 33.681,24.228 "/> <polygon fill="#71D5D8" points="16.035,14.353 51.436,34.042 75,20.936 39.599,1.247 "/> </symbol><symbol viewBox="0 0 80 80" id="blogs-logo_Sync"><title>logo_Sync</title><path fill="#00A4FF" d="M53.133,44.518h4.066v5.994l-17.2,10.558L22.716,50.512L7.634,59.729L39.999,79.5L72.28,59.729V44.518h4.153 L64.74,32.262L53.133,44.518z M39.999,0.5L7.634,20.185v15.297H3.566l11.607,12.346l11.608-12.346h-4.066v-5.905L39.999,19.02 l17.2,10.557l15.081-9.392L39.999,0.5z"/></symbol></svg>
