<?xml version="1.0" encoding="utf-8"?>
<!-- Generator: Adobe Illustrator 16.0.0, SVG Export Plug-In . SVG Version: 6.00 Build 0)  -->
<!DOCTYPE svg PUBLIC "-//W3C//DTD SVG 1.1//EN" "http://www.w3.org/Graphics/SVG/1.1/DTD/svg11.dtd">
<svg version="1.1" id="Layer_1" xmlns="http://www.w3.org/2000/svg" xmlns:xlink="http://www.w3.org/1999/xlink" x="0px" y="0px"
	 width="61.583px" height="70px" viewBox="0 0 61.583 70" enable-background="new 0 0 61.583 70" xml:space="preserve">
<rect x="23.841" y="-0.551" transform="matrix(-0.8861 -0.4635 0.4635 -0.8861 39.0169 38.6253)" fill="#009DB7" width="0.826" height="30.141"/>
<rect x="37.064" y="39.025" transform="matrix(0.5183 0.8552 -0.8552 0.5183 57.8707 -9.6068)" fill="#005B96" width="0.797" height="15.081"/>
<rect x="25.041" y="47.916" transform="matrix(0.7352 0.6779 -0.6779 0.7352 44.7051 -2.4165)" fill="#1D75B8" width="0.81" height="16.184"/>
<polygon fill="#1D75B8" points="30.929,68.777 1.722,51.913 2.12,51.223 30.929,67.859 44.356,60.104 44.754,60.795 "/>
<rect x="16.399" y="46.168" transform="matrix(0.8637 0.504 -0.504 0.8637 26.7656 -5.8321)" fill="#1D75B8" width="15.532" height="0.796"/>
<rect x="17.059" y="27.033" fill="#038AB5" width="0.795" height="15.618"/>
<rect x="1.524" y="18.072" fill="#038AB5" width="0.796" height="32.952"/>
<rect x="23.83" y="15.251" transform="matrix(0.5008 0.8656 -0.8656 0.5008 32.0877 -9.44)" fill="#009DB7" width="0.797" height="15.696"/>
<rect x="16.971" y="13.197" transform="matrix(0.9785 0.2062 -0.2062 0.9785 3.6351 -7.6861)" fill="#009DB7" width="43.434" height="0.796"/>
<rect x="36.401" y="5.591" transform="matrix(0.6922 0.7217 -0.7217 0.6922 21.1472 -22.3689)" fill="#00B7B8" width="0.796" height="16.036"/>
<rect x="14.337" y="8.637" transform="matrix(0.9394 0.3428 -0.3428 0.9394 6.5541 -4.0505)" fill="#038AB5" width="0.795" height="15.752"/>
<rect x="6.578" y="23.015" transform="matrix(0.9391 0.3437 -0.3437 0.9391 13.3963 -0.0984)" fill="#038AB5" width="0.796" height="29.447"/>
<rect x="0.819" y="38.982" transform="matrix(0.8895 0.4569 -0.4569 0.8895 19.1874 -0.5796)" fill="#1D75B8" width="19.946" height="0.796"/>
<rect x="30.783" y="58.633" transform="matrix(0.979 0.204 -0.204 0.979 12.8334 -6.4571)" fill="#1D75B8" width="13.919" height="0.795"/>
<rect x="1.61" y="54.192" transform="matrix(0.979 0.2039 -0.2039 0.979 11.4785 -2.2024)" fill="#1D75B8" width="29.631" height="0.796"/>
<rect x="37.284" y="40.983" transform="matrix(0.8852 0.4653 -0.4653 0.8852 30.1438 -11.161)" fill="#005B96" width="0.795" height="29.003"/>
<rect x="51.849" y="13.652" transform="matrix(0.5042 0.8636 -0.8636 0.5042 45.3823 -33.9382)" fill="#00B7B8" width="0.796" height="17.803"/>
<rect x="28.685" y="9.302" transform="matrix(-0.866 -0.5 0.5 -0.866 79.9318 40.8152)" fill="#00B7B8" width="33.497" height="0.796"/>
<rect x="29.977" y="22.661" transform="matrix(0.8667 0.4988 -0.4988 0.8667 16.5377 -15.7743)" fill="#00B7B8" width="15.62" height="0.796"/>
<rect x="23.785" y="-2.567" transform="matrix(-0.5008 -0.8656 0.8656 -0.5008 31.7752 28.7687)" fill="#009DB7" width="0.797" height="15.577"/>
<rect x="9.281" y="4.637" transform="matrix(0.4998 0.8661 -0.8661 0.4998 16.617 -1.5834)" fill="#009DB7" width="0.797" height="17.917"/>
<g>
	<defs>
		<rect id="SVGID_1_" width="61.583" height="70"/>
	</defs>
	<clipPath id="SVGID_2_">
		<use xlink:href="#SVGID_1_"  overflow="visible"/>
	</clipPath>
	<path clip-path="url(#SVGID_2_)" fill="#00B7B8" d="M32.769,1.84c0,1.018-0.823,1.84-1.84,1.84c-1.017,0-1.84-0.822-1.84-1.84
		c0-1.017,0.823-1.84,1.84-1.84C31.945,0,32.769,0.823,32.769,1.84"/>
	<path clip-path="url(#SVGID_2_)" fill="#009DB7" d="M19.477,9.461c0,1.018-0.823,1.84-1.84,1.84c-1.016,0-1.84-0.822-1.84-1.84
		c0-1.017,0.824-1.84,1.84-1.84C18.653,7.621,19.477,8.444,19.477,9.461"/>
	<path clip-path="url(#SVGID_2_)" fill="#038AB5" d="M3.761,18.073c0,1.017-0.823,1.84-1.84,1.84c-1.016,0-1.84-0.823-1.84-1.84
		s0.824-1.841,1.84-1.841C2.938,16.232,3.761,17.057,3.761,18.073"/>
	<path clip-path="url(#SVGID_2_)" fill="#038AB5" d="M3.761,34.842c0,1.018-0.823,1.84-1.84,1.84c-1.016,0-1.84-0.822-1.84-1.84
		s0.824-1.84,1.84-1.84C2.938,33.002,3.761,33.824,3.761,34.842"/>
	<path clip-path="url(#SVGID_2_)" fill="#1D75B8" d="M3.68,51.224c0,1.017-0.823,1.84-1.84,1.84c-1.016,0-1.84-0.823-1.84-1.84
		c0-1.018,0.824-1.84,1.84-1.84C2.857,49.384,3.68,50.206,3.68,51.224"/>
	<path clip-path="url(#SVGID_2_)" fill="#1D75B8" d="M19.297,42.651c0,1.017-0.823,1.84-1.84,1.84s-1.84-0.823-1.84-1.84
		c0-1.018,0.823-1.84,1.84-1.84S19.297,41.634,19.297,42.651"/>
	<path clip-path="url(#SVGID_2_)" fill="#038AB5" d="M19.297,27.033c0,1.018-0.823,1.84-1.84,1.84s-1.84-0.822-1.84-1.84
		c0-1.017,0.823-1.84,1.84-1.84S19.297,26.017,19.297,27.033"/>
	<path clip-path="url(#SVGID_2_)" fill="#009DB7" d="M32.968,19.164c0,1.018-0.823,1.84-1.84,1.84c-1.018,0-1.84-0.822-1.84-1.84
		s0.823-1.84,1.84-1.84C32.145,17.324,32.968,18.146,32.968,19.164"/>
	<path clip-path="url(#SVGID_2_)" fill="#00B7B8" d="M44.354,8.342c0,1.018-0.822,1.84-1.84,1.84c-1.016,0-1.84-0.822-1.84-1.84
		c0-1.017,0.824-1.84,1.84-1.84C43.532,6.502,44.354,7.325,44.354,8.342"/>
	<path clip-path="url(#SVGID_2_)" fill="#00B7B8" d="M61.583,17.838c0,1.017-0.823,1.84-1.839,1.84s-1.84-0.823-1.84-1.84
		c0-1.018,0.823-1.84,1.84-1.84S61.583,16.82,61.583,17.838"/>
	<path clip-path="url(#SVGID_2_)" fill="#00B7B8" d="M46.536,27.033c0,1.017-0.822,1.84-1.84,1.84c-1.016,0-1.84-0.823-1.84-1.84
		c0-1.018,0.824-1.84,1.84-1.84C45.714,25.193,46.536,26.016,46.536,27.033"/>
	<path clip-path="url(#SVGID_2_)" fill="#0469A1" d="M32.651,50.48c0,1.017-0.823,1.84-1.84,1.84c-1.016,0-1.84-0.823-1.84-1.84
		c0-1.018,0.824-1.84,1.84-1.84C31.828,48.641,32.651,49.463,32.651,50.48"/>
	<path clip-path="url(#SVGID_2_)" fill="#005B96" d="M45.552,43.142c0,1.017-0.822,1.84-1.84,1.84c-1.016,0-1.84-0.823-1.84-1.84
		c0-1.018,0.824-1.841,1.84-1.841C44.729,41.301,45.552,42.124,45.552,43.142"/>
	<path clip-path="url(#SVGID_2_)" fill="#005B96" d="M61.331,51.624c0,1.018-0.822,1.841-1.839,1.841
		c-1.016,0-1.84-0.823-1.84-1.841c0-1.017,0.824-1.84,1.84-1.84C60.509,49.784,61.331,50.607,61.331,51.624"/>
	<path clip-path="url(#SVGID_2_)" fill="#005B96" d="M46.396,60.449c0,1.018-0.823,1.841-1.84,1.841c-1.016,0-1.84-0.823-1.84-1.841
		c0-1.017,0.824-1.84,1.84-1.84C45.572,58.609,46.396,59.433,46.396,60.449"/>
	<path clip-path="url(#SVGID_2_)" fill="#0469A1" d="M32.77,68.159c0,1.018-0.823,1.841-1.84,1.841c-1.016,0-1.84-0.823-1.84-1.841
		c0-1.017,0.824-1.84,1.84-1.84C31.946,66.319,32.77,67.143,32.77,68.159"/>
	<path clip-path="url(#SVGID_2_)" fill="#1D75B8" d="M21.686,61.775c0,1.018-0.823,1.84-1.84,1.84c-1.016,0-1.84-0.822-1.84-1.84
		c0-1.017,0.824-1.84,1.84-1.84C20.862,59.936,21.686,60.759,21.686,61.775"/>
	
		<rect x="42.718" y="46.779" transform="matrix(0.8708 0.4917 -0.4917 0.8708 29.9049 -19.4328)" clip-path="url(#SVGID_2_)" fill="#005B96" width="18.41" height="0.795"/>
	
		<rect x="51.85" y="47.127" transform="matrix(0.5014 0.8652 -0.8652 0.5014 74.5076 -17.2799)" clip-path="url(#SVGID_2_)" fill="#005B96" width="0.795" height="17.763"/>
</g>
</svg>
