<svg version="1.1" xmlns="http://www.w3.org/2000/svg" id="mobileSDK" width="80px" height="80px" viewBox="0 0 80 80" xml:space="preserve">
<polygon fill="#208DBF" points="40.186,1.5 6.379,21.126 6.379,60.375 40.186,80 73.986,60.375 73.986,21.126 "/>
<polygon fill="#53BFE5" points="13.492,25.254 40.184,9.76 66.873,25.254 66.873,56.246 40.184,71.74 13.492,56.246 "/>
<path fill="#FFFFFF" d="M50.129,57.034c0,1.146-0.933,2.086-2.072,2.086H32.311c-1.139,0-2.072-0.939-2.072-2.086V24.466
	c0-1.146,0.934-2.086,2.072-2.086h15.746c1.14,0,2.072,0.939,2.072,2.086V57.034z"/>
<rect x="31.894" y="27.813" fill="#208DBF" width="16.575" height="26.853"/>
<rect x="37.593" y="24.669" fill="#208DBF" width="5.183" height="1.119"/>
<path fill="#FFFFFF" d="M62.283,32.542c0-1.516-0.936-2.815-2.258-3.348v4.12l-1.328,0.771l-1.328-0.771v-4.12
	c-1.32,0.53-2.255,1.832-2.255,3.348c0,1.497,0.905,2.782,2.198,3.328c0,0,0.741,0.243,1.385,0.246c0.646,0,1.333-0.227,1.333-0.227
	C61.35,35.359,62.283,34.061,62.283,32.542"/>
<rect x="57.175" y="35.319" fill="#FFFFFF" width="3.047" height="16.986"/>
<polygon fill="#FFFFFF" points="22.337,27.974 21.527,27.974 20.723,27.974 20.213,31.1 20.985,31.867 21.527,31.867 22.072,31.867
	22.844,31.1 "/>
<rect x="20.842" y="31.271" fill="#FFFFFF" width="1.378" height="11.733"/>
<rect x="19.643" y="41.271" fill="#FFFFFF" width="3.772" height="12.254"/>
<path fill="#FFFFFF" d="M55.761,50.727c0-1.632,1.316-2.954,2.938-2.954c1.62,0,2.938,1.322,2.938,2.954
	c0,1.633-1.318,2.956-2.938,2.956C57.077,53.683,55.761,52.359,55.761,50.727"/>
<path fill="#53BFE5" d="M57.278,50.727c0-0.788,0.637-1.428,1.421-1.428c0.785,0,1.42,0.64,1.42,1.428
	c0,0.789-0.635,1.428-1.42,1.428C57.915,52.154,57.278,51.516,57.278,50.727"/>
</svg>
