<svg version="1.1" xmlns="http://www.w3.org/2000/svg" id="push" width="80px" height="80px" viewBox="0 0 80 80" xml:space="preserve">
<polygon fill="#3AC3E3" points="4.449,20.328 40,0.652 75.551,20.326 75.551,59.673 40,79.348 4.449,59.673 "/>
<polygon fill="#97D8E6" points="11.93,24.463 39.998,8.932 68.068,24.463 68.07,55.535 40,71.068 11.93,55.535 "/>
<path fill="#FFFFFF" d="M40,61.361c-12.309,0-22.285-9.563-22.285-21.359c0-11.801,9.977-21.363,22.285-21.363
	c12.307,0,22.283,9.563,22.285,21.363C62.285,51.795,52.307,61.361,40,61.361"/>
<path fill="#E31E26" d="M39.998,59.672c-11.338,0-20.525-8.809-20.525-19.67c0-10.867,9.188-19.674,20.525-19.674
	s20.527,8.807,20.529,19.674C60.527,50.863,51.336,59.672,39.998,59.672"/>
<path fill="#FFFFFF" d="M42.934,54.102h-5.867v-5.088h5.867V54.102z M42.934,46.248h-5.867v-20.35h5.867V46.248z"/>
</svg>
