<svg version="1.1" id="connectedServices" xmlns="http://www.w3.org/2000/svg" 	 width="80px" height="80px" viewBox="0 0 80 80" xml:space="preserve">
<polygon fill="#009DB7" points="24.486,32.47 25.332,32.899 41.496,2.932 40.65,2.501 "/>
<polygon fill="#005B96" points="41.036,58.464 40.56,57.698 55.436,48.907 55.912,49.671 "/>
<polygon fill="#1A75B8" points="28.379,71.276 27.692,70.66 40.353,57.3 41.04,57.916 "/>
<polygon fill="#1A75B8" points="40.694,78.627 6.988,59.69 7.447,58.915 40.694,77.597 56.191,68.888 56.65,69.663 "/>
<polygon fill="#1A75B8" points="40.397,58.468 24.916,49.676 25.379,48.904 40.861,57.695 "/>
<rect x="24.688" y="31.753" fill="#038AB5" width="0.917" height="17.537"/>
<rect x="6.758" y="21.691" fill="#038AB5" width="0.919" height="37.001"/>
<polygon fill="#009DB7" points="25.354,32.141 24.895,31.365 40.568,22.531 41.026,23.304 "/>
<polygon fill="#009DB7" points="74.079,22.13 25.029,12.072 25.22,11.197 74.271,21.255 "/>
<polygon fill="#00B6B7" points="41.115,23.237 40.479,22.594 53.825,10.119 54.46,10.764 "/>
<polygon fill="#038AB5" points="19.315,28.399 18.453,28.095 24.694,11.48 25.557,11.787 "/>
<polygon fill="#038AB5" points="7.649,59.456 6.785,59.148 18.452,28.094 19.315,28.399 "/>
<polygon fill="#1A75B8" points="27.483,51.134 7.009,40.898 7.427,40.102 27.904,50.337 "/>
<polygon fill="#1A75B8" points="56.327,69.713 40.603,66.524 40.787,65.65 56.513,68.84 "/>
<polygon fill="#1A75B8" points="40.602,66.526 7.124,59.741 7.311,58.865 40.787,65.65 "/>
<polygon fill="#005B96" points="41.101,78.32 40.289,77.903 55.875,49.082 56.688,49.498 "/>
<polygon fill="#00B6B7" points="56.652,32.14 56.189,31.366 73.943,21.307 74.406,22.077 "/>
<polygon fill="#00B6B7" points="40.465,3.273 73.944,22.078 74.405,21.305 40.925,2.501 "/>
<polygon fill="#00B6B7" points="56.192,32.053 40.568,23.304 41.025,22.529 56.65,31.277 "/>
<polygon fill="#009DB7" points="24.895,11.248 25.355,12.021 40.925,3.274 40.465,2.501 "/>
<polygon fill="#009DB7" points="7.447,22.08 6.987,21.307 24.895,11.248 25.354,12.021 "/>
<g>
	<defs>
		<rect id="SVGID_3_" x="5" y="1.397" width="71.072" height="78.603"/>
	</defs>
	<clipPath id="SVGID_2_">
		<use xlink:href="#SVGID_3_"  overflow="visible"/>
	</clipPath>
	<path clip-path="url(#SVGID_2_)" fill="#00B6B7" d="M42.818,3.464c0,1.142-0.95,2.065-2.124,2.065S38.57,4.605,38.57,3.464
		c0-1.142,0.95-2.066,2.124-2.066S42.818,2.322,42.818,3.464"/>
	<path clip-path="url(#SVGID_2_)" fill="#009DB7" d="M27.478,12.021c0,1.143-0.95,2.066-2.123,2.066
		c-1.172,0-2.123-0.924-2.123-2.066c0-1.142,0.951-2.066,2.123-2.066C26.527,9.955,27.478,10.88,27.478,12.021"/>
	<path clip-path="url(#SVGID_2_)" fill="#038AB5" d="M9.342,21.692c0,1.142-0.951,2.066-2.124,2.066s-2.125-0.925-2.125-2.066
		c0-1.143,0.952-2.068,2.125-2.068S9.342,20.55,9.342,21.692"/>
	<path clip-path="url(#SVGID_2_)" fill="#038AB5" d="M9.342,40.521c0,1.142-0.951,2.065-2.124,2.065s-2.125-0.924-2.125-2.065
		c0-1.143,0.952-2.066,2.125-2.066S9.342,39.379,9.342,40.521"/>
	<path clip-path="url(#SVGID_2_)" fill="#1A75B8" d="M9.246,58.916c0,1.142-0.949,2.066-2.122,2.066S5,60.058,5,58.916
		s0.951-2.065,2.124-2.065S9.246,57.774,9.246,58.916"/>
	<path clip-path="url(#SVGID_2_)" fill="#1A75B8" d="M27.271,49.29c0,1.142-0.949,2.066-2.124,2.066s-2.124-0.925-2.124-2.066
		s0.949-2.065,2.124-2.065S27.271,48.148,27.271,49.29"/>
	<path clip-path="url(#SVGID_2_)" fill="#038AB5" d="M27.271,31.753c0,1.144-0.949,2.066-2.124,2.066s-2.124-0.923-2.124-2.066
		c0-1.143,0.949-2.066,2.124-2.066S27.271,30.61,27.271,31.753"/>
	<path clip-path="url(#SVGID_2_)" fill="#009DB7" d="M43.048,22.917c0,1.142-0.95,2.064-2.123,2.064
		c-1.175,0-2.125-0.923-2.125-2.064c0-1.144,0.95-2.067,2.125-2.067C42.098,20.85,43.048,21.773,43.048,22.917"/>
	<path clip-path="url(#SVGID_2_)" fill="#00B6B7" d="M56.189,10.764c0,1.144-0.949,2.067-2.123,2.067
		c-1.173,0-2.124-0.924-2.124-2.067c0-1.141,0.951-2.065,2.124-2.065C55.24,8.698,56.189,9.623,56.189,10.764"/>
	<path clip-path="url(#SVGID_2_)" fill="#00B6B7" d="M76.072,21.426c0,1.144-0.95,2.068-2.124,2.068
		c-1.172,0-2.122-0.925-2.122-2.068c0-1.141,0.95-2.063,2.122-2.063C75.122,19.362,76.072,20.285,76.072,21.426"/>
	<path clip-path="url(#SVGID_2_)" fill="#00B6B7" d="M58.706,31.753c0,1.143-0.948,2.066-2.122,2.066
		c-1.173,0-2.124-0.924-2.124-2.066c0-1.144,0.951-2.066,2.124-2.066C57.758,29.687,58.706,30.609,58.706,31.753"/>
	<path clip-path="url(#SVGID_2_)" fill="#006AA0" d="M42.683,58.082c0,1.141-0.95,2.064-2.123,2.064
		c-1.174,0-2.124-0.924-2.124-2.064c0-1.143,0.95-2.066,2.124-2.066C41.732,56.016,42.683,56.939,42.683,58.082"/>
	<path clip-path="url(#SVGID_2_)" fill="#005B96" d="M57.57,49.842c0,1.14-0.949,2.064-2.123,2.064
		c-1.172,0-2.123-0.925-2.123-2.064c0-1.144,0.951-2.067,2.123-2.067C56.621,47.774,57.57,48.698,57.57,49.842"/>
	<path clip-path="url(#SVGID_2_)" fill="#005B96" d="M75.781,59.365c0,1.143-0.949,2.067-2.123,2.067
		c-1.173,0-2.124-0.925-2.124-2.067c0-1.142,0.951-2.065,2.124-2.065C74.832,57.3,75.781,58.224,75.781,59.365"/>
	<path clip-path="url(#SVGID_2_)" fill="#005B96" d="M58.545,69.275c0,1.142-0.951,2.067-2.124,2.067s-2.124-0.926-2.124-2.067
		c0-1.141,0.951-2.065,2.124-2.065S58.545,68.135,58.545,69.275"/>
	<path clip-path="url(#SVGID_2_)" fill="#006AA0" d="M42.819,77.932c0,1.144-0.95,2.068-2.124,2.068
		c-1.173,0-2.124-0.925-2.124-2.068c0-1.14,0.951-2.064,2.124-2.064C41.869,75.867,42.819,76.792,42.819,77.932"/>
	<path clip-path="url(#SVGID_2_)" fill="#1A75B8" d="M30.026,70.764c0,1.144-0.95,2.067-2.122,2.067
		c-1.173,0-2.124-0.924-2.124-2.067c0-1.141,0.951-2.064,2.124-2.064C29.076,68.699,30.026,69.623,30.026,70.764"/>
	<polygon clip-path="url(#SVGID_2_)" fill="#005B96" points="73.948,59.843 55.447,49.678 55.898,48.901 74.4,59.065 	"/>
	<polygon clip-path="url(#SVGID_2_)" fill="#005B96" points="56.651,69.661 56.191,68.889 73.944,58.916 74.405,59.689 	"/>
</g>
</svg>
