<?xml version="1.0" encoding="utf-8"?>
<!-- Generator: Adobe Illustrator 16.0.0, SVG Export Plug-In . SVG Version: 6.00 Build 0)  -->
<!DOCTYPE svg PUBLIC "-//W3C//DTD SVG 1.1//EN" "http://www.w3.org/Graphics/SVG/1.1/DTD/svg11.dtd">
<svg version="1.1" id="Layer_1" xmlns="http://www.w3.org/2000/svg" xmlns:xlink="http://www.w3.org/1999/xlink" x="0px" y="0px"
	 width="78.117px" height="60px" viewBox="0 0 78.117 60" enable-background="new 0 0 78.117 60" xml:space="preserve">
<g>
	<defs>
		<rect id="SVGID_1_" width="78.118" height="60"/>
	</defs>
	<clipPath id="SVGID_2_">
		<use xlink:href="#SVGID_1_"  overflow="visible"/>
	</clipPath>
	<path clip-path="url(#SVGID_2_)" fill="#1C75B9" d="M29.078,21.775h-7.292v-7.211h7.292V21.775z M29.078,12.721h-7.292V5.453h7.292
		V12.721z M38.165,21.775h-7.269v-7.211h7.269V21.775z M38.165,12.721h-7.269V5.453h7.269V12.721z M47.249,12.721h-7.267V5.453
		h7.267V12.721z M61.785,23.193V1.805C61.785,1.124,60.689,0,60.009,0H18.106c-0.68,0-1.747,1.124-1.747,1.805v21.361l5.426,2.379
		V23.65h7.292v5.094l9.979,3.975l4.36-1.828H39.98v-7.24h7.268v5.635l1.818-0.762V23.65h7.265v1.828L61.785,23.193z M56.332,21.775
		h-7.266v-7.211h7.266V21.775z"/>
	<polygon clip-path="url(#SVGID_2_)" fill="#1C75B9" points="38.165,60 38.165,37.358 29.786,45.682 10.895,37.246 10.895,49.078 	
		"/>
	<polygon clip-path="url(#SVGID_2_)" fill="#1C75B9" points="38.175,34.556 29.751,43.056 1.788,30.896 10.938,23.693 	"/>
	<polygon clip-path="url(#SVGID_2_)" fill="#1C75B9" points="14.525,20.027 14.525,8.648 0,14.602 10.952,21.859 	"/>
	<polygon clip-path="url(#SVGID_2_)" fill="#1C75B9" points="14.523,21.786 12.362,22.813 14.553,23.655 	"/>
	<polygon clip-path="url(#SVGID_2_)" fill="#1C75B9" points="39.953,60 39.953,37.358 48.333,45.682 67.223,37.246 67.223,49.078 	
		"/>
	<polygon clip-path="url(#SVGID_2_)" fill="#1C75B9" points="39.941,34.556 48.364,43.056 76.327,30.896 67.177,23.693 	"/>
	<polygon clip-path="url(#SVGID_2_)" fill="#1C75B9" points="63.593,20.027 63.593,8.648 78.117,14.602 67.164,21.859 	"/>
	<polygon clip-path="url(#SVGID_2_)" fill="#1C75B9" points="63.595,21.786 65.979,22.721 63.594,23.655 	"/>
</g>
</svg>
