<?xml version="1.0" encoding="utf-8"?>
<!-- Generator: Adobe Illustrator 16.0.0, SVG Export Plug-In . SVG Version: 6.00 Build 0)  -->
<!DOCTYPE svg PUBLIC "-//W3C//DTD SVG 1.1//EN" "http://www.w3.org/Graphics/SVG/1.1/DTD/svg11.dtd">
<svg version="1.1" xmlns="http://www.w3.org/2000/svg" xmlns:xlink="http://www.w3.org/1999/xlink" x="0px" y="0px" width="80px"
	 height="80px" viewBox="0 0 80 80" enable-background="new 0 0 80 80" xml:space="preserve">
<g id="Layer_1">
	<polygon fill="#208DBF" points="41.21,6.334 10.898,23.834 10.898,58.835 41.21,76.334 71.52,58.835 71.52,23.834 	"/>
	<polygon fill="#53BFE5" points="17.277,27.516 41.209,13.699 65.141,27.516 65.141,55.151 41.209,68.968 17.277,55.151 	"/>
	<path fill="#FFFFFF" d="M50.127,55.855c0,1.022-0.837,1.858-1.858,1.858H34.15c-1.021,0-1.857-0.836-1.857-1.858V26.813
		c0-1.022,0.836-1.858,1.857-1.858h14.119c1.021,0,1.858,0.836,1.858,1.858V55.855z"/>
	<rect x="33.778" y="29.798" fill="#208DBF" width="14.861" height="23.944"/>
	<rect x="38.887" y="26.994" fill="#208DBF" width="4.646" height="0.998"/>
	<path fill="#FFFFFF" d="M61.026,34.016c-0.001-1.354-0.838-2.512-2.023-2.987v3.675l-1.191,0.688l-1.191-0.688v-3.675
		c-1.185,0.474-2.021,1.634-2.021,2.987c0,1.335,0.812,2.48,1.971,2.967c0,0,0.663,0.217,1.242,0.219
		c0.58,0,1.195-0.201,1.195-0.201C60.189,36.526,61.025,35.369,61.026,34.016"/>
	<rect x="56.445" y="36.491" fill="#FFFFFF" width="2.732" height="15.147"/>
	<polygon fill="#FFFFFF" points="25.207,29.941 24.483,29.941 23.759,29.941 23.302,32.729 23.997,33.412 24.483,33.412 
		24.97,33.412 25.663,32.729 	"/>
	<rect x="23.867" y="32.881" fill="#FFFFFF" width="1.234" height="10.464"/>
	<rect x="22.792" y="41.8" fill="#FFFFFF" width="3.382" height="10.926"/>
	<path fill="#FFFFFF" d="M55.177,50.23c0-1.454,1.18-2.635,2.635-2.635c1.454,0,2.635,1.181,2.635,2.635
		c0,1.455-1.181,2.636-2.635,2.636C56.357,52.866,55.177,51.686,55.177,50.23"/>
	<path fill="#53BFE5" d="M56.538,50.23c0-0.703,0.571-1.273,1.274-1.273s1.273,0.57,1.273,1.273s-0.57,1.274-1.273,1.274
		S56.538,50.934,56.538,50.23"/>
</g>
<g id="Layer_2">
</g>
</svg>
