<?xml version="1.0" encoding="utf-8"?>
<!-- Generator: Adobe Illustrator 16.0.0, SVG Export Plug-In . SVG Version: 6.00 Build 0)  -->
<!DOCTYPE svg PUBLIC "-//W3C//DTD SVG 1.1//EN" "http://www.w3.org/Graphics/SVG/1.1/DTD/svg11.dtd">
<svg version="1.1" xmlns="http://www.w3.org/2000/svg" xmlns:xlink="http://www.w3.org/1999/xlink" x="0px" y="0px" width="80px"
	 height="80px" viewBox="0 0 80 80" enable-background="new 0 0 80 80" xml:space="preserve">
<g id="Layer_1">
	<polygon fill="#3AC3E3" points="9.644,23.584 39.955,6.084 70.266,23.583 70.266,58.584 39.956,76.084 9.644,58.584 	"/>
	<polygon fill="#97D8E6" points="16.023,27.267 39.956,13.449 63.887,27.266 63.888,54.9 39.957,68.719 16.023,54.901 	"/>
	<path fill="#FFFFFF" d="M39.956,60.084c-10.494,0-19.001-8.506-19.001-19c0-10.493,8.507-19,19.001-19s19,8.506,19.001,19
		C58.957,51.577,50.45,60.084,39.956,60.084"/>
	<path fill="#E31E26" d="M39.956,58.584c-9.666,0-17.501-7.835-17.501-17.5s7.835-17.5,17.501-17.5c9.665,0,17.5,7.834,17.501,17.5
		C57.457,50.749,49.622,58.584,39.956,58.584"/>
	<path fill="#FFFFFF" d="M42.458,53.628h-5.005v-4.525h5.005V53.628z M42.458,46.641h-5.005V28.539h5.005V46.641z"/>
	<rect x="-182.934" y="5" fill="none" width="245.868" height="70"/>
</g>
<g id="Layer_2">
</g>
</svg>
